<?xml version="1.0" encoding="utf-8"?>
<!-- Generator: Adobe Illustrator 19.0.1, SVG Export Plug-In . SVG Version: 6.00 Build 0)  -->
<svg version="1.1" id="Слой_1" xmlns="http://www.w3.org/2000/svg" xmlns:xlink="http://www.w3.org/1999/xlink" x="0px" y="0px"
	 viewBox="0 0 83 91.5" style="enable-background:new 0 0 83 91.5;" xml:space="preserve">
<style type="text/css">
	.st0{clip-path:url(#SVGID_2_);fill:#4D4D4D;}
</style>
<g>
	<defs>
		<rect id="SVGID_1_" width="83" height="91.5"/>
	</defs>
	<clipPath id="SVGID_2_">
		<use xlink:href="#SVGID_1_"  style="overflow:visible;"/>
	</clipPath>
	<path class="st0" d="M25.3,67.7V49H16v9.8C18.5,62.4,21.6,65.4,25.3,67.7"/>
	<path class="st0" d="M29.1,69.7c2.9,1.3,6.1,2.1,9.3,2.4V37.6h-9.3V69.7z"/>
	<path class="st0" d="M42.2,72.2c3.2-0.1,6.3-0.6,9.3-1.7V44.1h-9.3V72.2z"/>
	<path class="st0" d="M55.4,69c3.5-1.8,6.7-4.2,9.3-7.1V33.1h-9.3V69z"/>
	<path class="st0" d="M20.6,45.7c2.5,0,4.6-2.1,4.6-4.6c0-0.8-0.2-1.6-0.6-2.3l6.8-5.4c0.8,0.6,1.8,0.9,2.8,0.9
		c1.2,0,2.4-0.5,3.3-1.4l5,2.8c-0.1,0.4-0.2,0.8-0.2,1.2c0,2.5,2.1,4.6,4.6,4.6c2.5,0,4.6-2.1,4.6-4.6c0-0.8-0.2-1.5-0.6-2.2
		l7.1-6.8c0.7,0.4,1.5,0.7,2.4,0.7c2.5,0,4.6-2.1,4.6-4.6c0-2.5-2.1-4.6-4.6-4.6s-4.6,2.1-4.6,4.6v0c0,0.8,0.2,1.5,0.6,2.2L49.3,33
		c-0.7-0.4-1.5-0.7-2.4-0.7c-1.2,0-2.4,0.5-3.3,1.4l-5-2.8c0.1-0.4,0.2-0.8,0.2-1.2c0-2.5-2.1-4.6-4.6-4.6c-2.5,0-4.6,2.1-4.6,4.6v0
		c0,0.6,0.1,1.2,0.4,1.8l-7,5.5c-2.2-1.3-5-0.5-6.3,1.7c-0.4,0.7-0.6,1.5-0.6,2.3C16,43.6,18.1,45.7,20.6,45.7 M60.4,21.8
		c1.2,0,2.2,1,2.2,2.2c0,1.2-1,2.2-2.2,2.2c-0.2,0-0.4,0-0.5-0.1c-0.8-0.2-1.5-0.9-1.6-1.7c0-0.1-0.1-0.3,0-0.4
		C58.2,22.8,59.2,21.8,60.4,21.8 M44.6,36.9c0-0.8,0.4-1.6,1.2-2h0c0.3-0.2,0.7-0.3,1-0.3c0.2,0,0.4,0,0.5,0.1
		c0.8,0.2,1.5,0.9,1.6,1.7v0c0,0.1,0.1,0.3,0,0.4c0,1.2-1,2.2-2.2,2.2C45.7,39.2,44.7,38.2,44.6,36.9L44.6,36.9z M34.2,27.5
		c1.2,0,2.2,0.9,2.2,2.1v0.1c0,0.8-0.5,1.6-1.2,2c-0.3,0.2-0.7,0.3-1.1,0.3c-0.3,0-0.5,0-0.8-0.1c-0.8-0.3-1.4-1-1.5-1.9
		c0-0.1,0-0.2,0-0.2C31.9,28.5,32.9,27.5,34.2,27.5 M20.6,38.8L20.6,38.8c0.9,0,1.7,0.6,2.1,1.4c0.1,0.3,0.2,0.5,0.2,0.8
		c0,1.2-1,2.2-2.2,2.2c-1.2,0-2.2-1-2.2-2.2C18.4,39.8,19.4,38.8,20.6,38.8"/>
</g>
</svg>
