<?xml version="1.0" encoding="utf-8"?>
<!-- Generator: Adobe Illustrator 19.0.1, SVG Export Plug-In . SVG Version: 6.00 Build 0)  -->
<svg version="1.1" id="Слой_1" xmlns="http://www.w3.org/2000/svg" xmlns:xlink="http://www.w3.org/1999/xlink" x="0px" y="0px"
	 viewBox="0 0 54 54" style="enable-background:new 0 0 54 54;" xml:space="preserve">
<style type="text/css">
	.st0{fill:none;stroke:#267DF4;stroke-width:2;stroke-linecap:round;stroke-linejoin:round;stroke-miterlimit:10;}
	
		.st1{clip-path:url(#SVGID_2_);fill:none;stroke:#267DF4;stroke-width:2;stroke-linecap:round;stroke-linejoin:round;stroke-miterlimit:10;}
</style>
<line class="st0" x1="30.4" y1="7.7" x2="37.9" y2="7.7"/>
<line class="st0" x1="16.1" y1="14.4" x2="37.9" y2="14.4"/>
<line class="st0" x1="16.1" y1="21.1" x2="37.9" y2="21.1"/>
<g>
	<defs>
		<rect id="SVGID_1_" width="54" height="54"/>
	</defs>
	<clipPath id="SVGID_2_">
		<use xlink:href="#SVGID_1_"  style="overflow:visible;"/>
	</clipPath>
	<path class="st1" d="M1.5,22.3l24.1,15.1c0.9,0.5,2,0.5,2.8,0l24.1-15.1"/>
	<path class="st1" d="M9.4,18.5l-6.8,2.8c-1,0.4-1.6,1.4-1.6,2.4v26.6C1,51.8,2.2,53,3.6,53h46.7c1.5,0,2.6-1.2,2.6-2.6V23.1
		c0-0.7-0.4-1.3-1-1.6l-7.3-3.1"/>
	<path class="st1" d="M9.4,27V3.6C9.4,2.2,10.6,1,12,1H42c1.5,0,2.6,1.2,2.6,2.6V27"/>
</g>
</svg>
