<?xml version="1.0" encoding="utf-8"?>
<!-- Generator: Adobe Illustrator 19.0.1, SVG Export Plug-In . SVG Version: 6.00 Build 0)  -->
<svg version="1.1" id="Слой_1" xmlns="http://www.w3.org/2000/svg" xmlns:xlink="http://www.w3.org/1999/xlink" x="0px" y="0px"
	 viewBox="0 0 64 55" style="enable-background:new 0 0 64 55;" xml:space="preserve">
<style type="text/css">
	.st0{clip-path:url(#SVGID_2_);fill:none;stroke:#267DF4;stroke-width:2;stroke-miterlimit:10;}
</style>
<g>
	<defs>
		<rect id="SVGID_1_" width="64" height="55"/>
	</defs>
	<clipPath id="SVGID_2_">
		<use xlink:href="#SVGID_1_"  style="overflow:visible;"/>
	</clipPath>
	<path class="st0" d="M11,43C5.5,43,1,38.5,1,33s4.5-10,10-10h2v20H11z"/>
	<path class="st0" d="M53,23c5.5,0,10,4.5,10,10s-4.5,10-10,10h-2V23H53z"/>
	<path class="st0" d="M13,26v-9c0,0,0-16,19-16s19,16,19,16v6"/>
	<path class="st0" d="M51,43v4.5c0,0.3-0.2,0.6-0.5,0.7l-14.4,5.7C36,54,35.9,54,35.8,54h-7.1c-0.4,0-0.8-0.4-0.8-0.8v-2.4
		c0-0.4,0.4-0.8,0.8-0.8h6.4c0.4,0,0.8,0.4,0.8,0.8V53"/>
</g>
</svg>
