<?xml version="1.0" encoding="utf-8"?>
<!-- Generator: Adobe Illustrator 19.0.1, SVG Export Plug-In . SVG Version: 6.00 Build 0)  -->
<svg version="1.1" id="Слой_1" xmlns="http://www.w3.org/2000/svg" xmlns:xlink="http://www.w3.org/1999/xlink" x="0px" y="0px"
	 viewBox="0 0 55 55" style="enable-background:new 0 0 55 55;" xml:space="preserve">
<style type="text/css">
	.st0{clip-path:url(#SVGID_2_);fill:none;stroke:#267DF4;stroke-width:2;stroke-miterlimit:10;}
</style>
<g>
	<defs>
		<rect id="SVGID_1_" width="55" height="55"/>
	</defs>
	<clipPath id="SVGID_2_">
		<use xlink:href="#SVGID_1_"  style="overflow:visible;"/>
	</clipPath>
	<path class="st0" d="M50.5,29.7c0.3-1.8-1.2-3.4-3-3c-1,0.2-1.8,1-2,2c-0.3,1.8,1.2,3.4,3,3C49.5,31.5,50.3,30.7,50.5,29.7z"/>
	<path class="st0" d="M21.5,4.1c0.3-1.8-1.2-3.4-3-3c-1,0.2-1.8,1-2,2c-0.3,1.8,1.2,3.4,3,3C20.5,5.9,21.3,5.1,21.5,4.1z"/>
	<path class="st0" d="M36.9,43.4c0.3-1.8-1.2-3.4-3-3c-1,0.2-1.8,1-2,2c-0.3,1.8,1.2,3.4,3,3C35.8,45.2,36.7,44.4,36.9,43.4z"/>
	<path class="st0" d="M8.6,27.1c0.3-1.8-1.2-3.4-3-3c-1,0.2-1.8,1-2,2c-0.3,1.8,1.2,3.4,3,3C7.6,29,8.5,28.2,8.6,27.1z"/>
	<line class="st0" x1="7" y1="24.1" x2="17.2" y2="5.3"/>
	<line class="st0" x1="36.9" y1="41.2" x2="46.3" y2="30.9"/>
	<path class="st0" d="M52.4,54H2.6C1.7,54,1,53.3,1,52.4v-1.9c0-0.9,0.7-1.6,1.6-1.6h49.8c0.9,0,1.6,0.7,1.6,1.6v1.9
		C54,53.3,53.3,54,52.4,54z"/>
	<line class="st0" x1="20.7" y1="5.3" x2="32.6" y2="40.3"/>
</g>
</svg>
