<?xml version="1.0" encoding="utf-8"?>
<!-- Generator: Adobe Illustrator 19.0.1, SVG Export Plug-In . SVG Version: 6.00 Build 0)  -->
<svg version="1.1" id="Слой_1" xmlns="http://www.w3.org/2000/svg" xmlns:xlink="http://www.w3.org/1999/xlink" x="0px" y="0px"
	 viewBox="0 0 53 54.1" style="enable-background:new 0 0 53 54.1;" xml:space="preserve">
<style type="text/css">
	.st0{clip-path:url(#SVGID_2_);fill:none;stroke:#267DF4;stroke-width:2;stroke-miterlimit:10;}
</style>
<g>
	<defs>
		<rect id="SVGID_1_" y="0" width="53" height="54.1"/>
	</defs>
	<clipPath id="SVGID_2_">
		<use xlink:href="#SVGID_1_"  style="overflow:visible;"/>
	</clipPath>
	<path class="st0" d="M25,43.3l-12.4,9.3c-1.9,1.4-4.5-0.5-3.8-2.7l5-15.1c0.3-1,0-2.1-0.8-2.7L1.9,23.5C0.1,22.1,1.2,19,3.5,19
		h12.8c1,0,2.3-0.5,2.6-1.5l5.2-14.9c0.8-2.2,3.8-2.2,4.6,0l5.2,14.9c0.3,1,2,1.5,3,1.5h12.8c2.3,0,3,3.1,1.2,4.5l-11.1,8.6
		c-0.8,0.6-1.1,1.7-0.8,2.7l5,15.1c0.8,2.3-1.9,4.2-3.8,2.7l-12.4-9.3C27,42.7,25.8,42.7,25,43.3z"/>
</g>
</svg>
