<?xml version="1.0" encoding="utf-8"?>
<!-- Generator: Adobe Illustrator 19.0.1, SVG Export Plug-In . SVG Version: 6.00 Build 0)  -->
<svg version="1.1" id="Слой_1" xmlns="http://www.w3.org/2000/svg" xmlns:xlink="http://www.w3.org/1999/xlink" x="0px" y="0px"
	 viewBox="0 0 58 53.8" style="enable-background:new 0 0 58 53.8;" xml:space="preserve">
<style type="text/css">
	.st0{clip-path:url(#SVGID_2_);fill:none;stroke:#267DF4;stroke-width:2;stroke-linecap:round;stroke-miterlimit:10;}
</style>
<g>
	<defs>
		<rect id="SVGID_1_" y="0" width="58" height="53.8"/>
	</defs>
	<clipPath id="SVGID_2_">
		<use xlink:href="#SVGID_1_"  style="overflow:visible;"/>
	</clipPath>
	<path class="st0" d="M24.5,41.7h22.6c1.6,0,2.7-0.8,2.7-2.5V10.8c0-1.6-1-2.6-2.7-2.6H3.7C2.1,8.2,1,9.2,1,10.8v28.4
		c0,1.6,1.1,2.5,2.7,2.5H10c1.6,0,2.7,1.8,2.7,3.5v6.5l10-8.7C23.3,42.4,23.8,41.7,24.5,41.7z"/>
	<path class="st0" d="M52.7,35.3h1.7c1.6,0,2.7-1.7,2.7-3.4V3.6C57,1.9,56,1,54.3,1H10.9C9.3,1,8.2,1.9,8.2,3.6v2"/>
</g>
</svg>
