<?xml version="1.0" encoding="utf-8"?>
<!-- Generator: Adobe Illustrator 19.0.1, SVG Export Plug-In . SVG Version: 6.00 Build 0)  -->
<svg version="1.1" id="Слой_1" xmlns="http://www.w3.org/2000/svg" xmlns:xlink="http://www.w3.org/1999/xlink" x="0px" y="0px"
	 viewBox="0 0 54.4 57" style="enable-background:new 0 0 54.4 57;" xml:space="preserve">
<style type="text/css">
	.st0{fill:none;stroke:#267DF4;stroke-width:2;stroke-miterlimit:10;}
	.st1{clip-path:url(#SVGID_2_);fill:none;stroke:#267DF4;stroke-width:2;stroke-miterlimit:10;}
	.st2{clip-path:url(#SVGID_2_);fill:#267DF4;}
</style>
<line class="st0" x1="14.3" y1="5" x2="40.6" y2="5"/>
<g>
	<defs>
		<rect id="SVGID_1_" width="54.4" height="57"/>
	</defs>
	<clipPath id="SVGID_2_">
		<use xlink:href="#SVGID_1_"  style="overflow:visible;"/>
	</clipPath>
	<path class="st1" d="M46.7,5h4.6c1.2,0,2.1,1.1,2.1,2.5v46c0,1.4-1,2.5-2.1,2.5h-48C2.1,56,1,55.4,1,54V7c0-1.4,1.1-2,2.3-2h4.5"/>
	<line class="st1" x1="1.2" y1="17" x2="53.2" y2="17"/>
	<line class="st1" x1="11" y1="0" x2="11" y2="9"/>
	<line class="st1" x1="44" y1="0" x2="44" y2="9"/>
	<path class="st2" d="M21.9,41.7c0.7,0.5,2.4,1.2,4.2,1.2c3.3,0,4.4-2.1,4.3-3.7c0-2.7-2.4-3.8-4.9-3.8h-1.4v-1.9h1.4
		c1.9,0,4.3-1,4.3-3.2c0-1.5-1-2.9-3.4-2.9c-1.5,0-3,0.7-3.8,1.3L22,26.7c1-0.7,2.9-1.5,5-1.5c3.8,0,5.5,2.2,5.5,4.6
		c0,2-1.2,3.6-3.5,4.5v0.1c2.4,0.5,4.3,2.2,4.3,4.9c0,3.1-2.4,5.7-7,5.7c-2.1,0-4-0.7-5-1.3L21.9,41.7z"/>
</g>
</svg>
