<?xml version="1.0" encoding="utf-8"?>
<!-- Generator: Adobe Illustrator 19.0.1, SVG Export Plug-In . SVG Version: 6.00 Build 0)  -->
<svg version="1.1" id="Слой_1" xmlns="http://www.w3.org/2000/svg" xmlns:xlink="http://www.w3.org/1999/xlink" x="0px" y="0px"
	 viewBox="0 0 55 53" style="enable-background:new 0 0 55 53;" xml:space="preserve">
<style type="text/css">
	.st0{clip-path:url(#SVGID_2_);fill:none;stroke:#267DF4;stroke-width:2;stroke-miterlimit:10;}
</style>
<g>
	<defs>
		<rect id="SVGID_1_" width="55" height="53"/>
	</defs>
	<clipPath id="SVGID_2_">
		<use xlink:href="#SVGID_1_"  style="overflow:visible;"/>
	</clipPath>
	<path class="st0" d="M1,23.2c0.6,0.2,3.5,3.9,5,5.8c0.5,0.7,1.3,1.1,2,1.1H48c0.9,0,1.7-0.5,2.2-1.3l3.8-5.6"/>
	<path class="st0" d="M18,8c0.2-0.2,1.7-2.8,2.8-4.8C21.6,1.8,22.7,1,24,1h7.1c1.2,0,2.4,0.8,3.2,2.1L37,8"/>
	<path class="st0" d="M51,52H4c-1.7,0-3-1.6-3-3.6V11.6C1,9.6,2.4,8,4,8H51c1.7,0,3,1.6,3,3.6v36.8C54,50.4,52.6,52,51,52z"/>
	<circle class="st0" cx="28.2" cy="19.6" r="3.4"/>
</g>
</svg>
