<?xml version="1.0" encoding="utf-8"?>
<!-- Generator: Adobe Illustrator 19.0.1, SVG Export Plug-In . SVG Version: 6.00 Build 0)  -->
<svg version="1.1" id="Слой_1" xmlns="http://www.w3.org/2000/svg" xmlns:xlink="http://www.w3.org/1999/xlink" x="0px" y="0px"
	 viewBox="0 0 115.5 74.1" style="enable-background:new 0 0 115.5 74.1;" xml:space="preserve">
<style type="text/css">
	.st0{clip-path:url(#SVGID_2_);fill:#EEF0FD;}
	.st1{clip-path:url(#SVGID_2_);fill:#FFFFFF;}
</style>
<g>
	<defs>
		<rect id="SVGID_1_" y="0" width="115.5" height="74.1"/>
	</defs>
	<clipPath id="SVGID_2_">
		<use xlink:href="#SVGID_1_"  style="overflow:visible;"/>
	</clipPath>
	<path class="st0" d="M109.6,56.6H5.9c-3.3,0-5.9-2.7-5.9-5.9V5.9C0,2.7,2.7,0,5.9,0h103.7c3.3,0,5.9,2.7,5.9,5.9v44.7
		C115.5,53.9,112.8,56.6,109.6,56.6"/>
	
		<rect x="39.5" y="30.3" transform="matrix(0.7071 -0.7071 0.7071 0.7071 -17.3572 54.9425)" class="st0" width="36.3" height="36.3"/>
	<path class="st1" d="M30,18.1c-3.6,0-6.5,3-6.5,4.8c0-1.8-2.9-4.8-6.5-4.8c-3.6,0-7.7,3.2-7.7,8.9c0,12,14.2,16.1,14.2,16.1
		s14.2-4.1,14.2-16.1C37.8,21.2,33.6,18.1,30,18.1"/>
	<path class="st1" d="M64.3,18.1c-3.6,0-6.5,3-6.5,4.8c0-1.8-2.9-4.8-6.5-4.8c-3.6,0-7.7,3.2-7.7,8.9c0,12,14.2,16.1,14.2,16.1
		S72,38.9,72,26.9C72,21.2,67.9,18.1,64.3,18.1"/>
	<path class="st1" d="M98.6,18.1c-3.6,0-6.5,3-6.5,4.8c0-1.8-2.9-4.8-6.5-4.8c-3.6,0-7.7,3.2-7.7,8.9c0,12,14.2,16.1,14.2,16.1
		s14.2-4.1,14.2-16.1C106.3,21.2,102.2,18.1,98.6,18.1"/>
</g>
</svg>
