<?xml version="1.0" encoding="utf-8"?>
<!-- Generator: Adobe Illustrator 19.0.1, SVG Export Plug-In . SVG Version: 6.00 Build 0)  -->
<svg version="1.1" id="Слой_1" xmlns="http://www.w3.org/2000/svg" xmlns:xlink="http://www.w3.org/1999/xlink" x="0px" y="0px"
	 viewBox="0 0 60 59.9" style="enable-background:new 0 0 60 59.9;" xml:space="preserve">
<style type="text/css">
	.st0{clip-path:url(#SVGID_2_);fill:#EFF1FF;}
	.st1{clip-path:url(#SVGID_2_);fill:#FFFFFF;}
</style>
<g>
	<defs>
		<rect id="SVGID_1_" y="0" width="60" height="59.9"/>
	</defs>
	<clipPath id="SVGID_2_">
		<use xlink:href="#SVGID_1_"  style="overflow:visible;"/>
	</clipPath>
	<path class="st0" d="M54.9,45.7H5.1c-2.8,0-5.1-2.3-5.1-5.1V5.1C0,2.3,2.3,0,5.1,0h49.9C57.7,0,60,2.3,60,5.1v35.6
		C60,43.5,57.7,45.7,54.9,45.7"/>
	
		<rect x="16.2" y="24.5" transform="matrix(0.7071 -0.7071 0.7071 0.7071 -18.6475 33.311)" class="st0" width="29.4" height="29.4"/>
	<path class="st1" d="M33.3,29.2v-2.5c1.8-1.5,3.1-4.2,3.1-7.3c0-4.8-2.9-8.6-6.4-8.6c-3.5,0-6.4,3.9-6.4,8.6c0,3.1,1.2,5.8,3,7.3
		v2.5c-5.7,0.9-9.8,3.5-9.8,3.5v4.1h26.2v-4.1C43.1,32.8,39.1,30,33.3,29.2"/>
</g>
</svg>
