<?xml version="1.0" encoding="utf-8"?>
<!-- Generator: Adobe Illustrator 19.0.1, SVG Export Plug-In . SVG Version: 6.00 Build 0)  -->
<svg version="1.1" id="Слой_1" xmlns="http://www.w3.org/2000/svg" xmlns:xlink="http://www.w3.org/1999/xlink" x="0px" y="0px"
	 viewBox="0 0 60 59.9" style="enable-background:new 0 0 60 59.9;" xml:space="preserve">
<style type="text/css">
	.st0{clip-path:url(#SVGID_2_);fill:#EFF1FF;}
	.st1{clip-path:url(#SVGID_2_);fill:#FFFFFF;}
</style>
<g>
	<defs>
		<rect id="SVGID_1_" y="0" width="60" height="59.9"/>
	</defs>
	<clipPath id="SVGID_2_">
		<use xlink:href="#SVGID_1_"  style="overflow:visible;"/>
	</clipPath>
	<path class="st0" d="M54.9,45.7H5.1c-2.8,0-5.1-2.3-5.1-5.1V5.1C0,2.3,2.3,0,5.1,0h49.9C57.7,0,60,2.3,60,5.1v35.6
		C60,43.5,57.7,45.7,54.9,45.7"/>
	
		<rect x="16.2" y="24.5" transform="matrix(0.7071 -0.7071 0.7071 0.7071 -18.6474 33.3112)" class="st0" width="29.4" height="29.4"/>
	<path class="st1" d="M36.5,13C32.9,13,30,16,30,17.8c0-1.8-2.9-4.8-6.5-4.8c-3.6,0-7.7,3.2-7.7,8.9c0,12,14.2,16.1,14.2,16.1
		s14.2-4.1,14.2-16.1C44.2,16.2,40.1,13,36.5,13"/>
</g>
</svg>
